ply
format ascii 1.0
comment generated by tinyply 2.2
element vertex 13
property float x
property float y
property float z
property float nx
property float ny
property float nz
property float u
property float v
element face 12
property list uchar uint vertex_indices
end_header
0 0 0 0 0 1 0 0 
3 0 0 0 0 1 0 0 
2.61 1.5 0 0 0 1 0 0 
1.5 2.61 0 0 0 1 0 0 
0 3 0 0 0 1 0 0 
-1.5 2.61 0 0 0 1 0 0 
-2.61 1.5 0 0 0 1 0 0 
-3 0 0 0 0 1 0 0 
-2.61 -1.5 0 0 0 1 0 0 
-1.5 -2.61 0 0 0 1 0 0 
0 -3 0 0 0 1 0 0 
1.5 -2.61 0 0 0 1 0 0 
2.61 -1.5 0 0 0 1 0 0 
3 0 1 2 
3 0 2 3 
3 0 3 4 
3 0 4 5 
3 0 5 6 
3 0 6 7 
3 0 7 8 
3 0 8 9 
3 0 9 10 
3 0 10 11 
3 0 11 12 
3 0 12 1 
