ply
format ascii 1.0
comment Created by Blender 2.74 (sub 0) - www.blender.org, source file: 'jump.blend'
element vertex 4
property float x
property float y
property float z
property float nx
property float ny
property float nz
property float s
property float t
element face 1
property list uchar uint vertex_indices
end_header
11.803393 -11.803393 0.000002 0.000000 -0.000000 -1.000000 0.000000 0.000000
-11.803391 -11.803398 0.000002 0.000000 -0.000000 -1.000000 -1.000000 0.000000
-11.803395 11.803392 -0.000002 0.000000 -0.000000 -1.000000 -1.000000 -1.000000
11.803393 11.803393 -0.000002 0.000000 -0.000000 -1.000000 0.000000 -1.000000
4 0 1 2 3
